<mxfile host="65bd71144e">
    <diagram id="4K2F5DV6LwASr4zd8sOl" name="Page-1">
        <mxGraphModel dx="1710" dy="852" grid="1" gridSize="10" guides="1" tooltips="1" connect="1" arrows="1" fold="1" page="0" pageScale="1" pageWidth="827" pageHeight="1169" math="0" shadow="0">
            <root>
                <mxCell id="0"/>
                <mxCell id="1" parent="0"/>
                <mxCell id="Es5IA8GZJjC9We63MNXz-17" value="Redmine Issue Event Emitter" style="rounded=0;whiteSpace=wrap;html=1;fillColor=#f5f5f5;align=center;verticalAlign=top;fontColor=#333333;strokeColor=#666666;shadow=1;fontStyle=1;spacing=8;spacingLeft=0;" parent="1" vertex="1">
                    <mxGeometry x="280" y="80" width="960" height="350" as="geometry"/>
                </mxCell>
                <mxCell id="Es5IA8GZJjC9We63MNXz-4" value="" style="edgeStyle=orthogonalEdgeStyle;rounded=0;orthogonalLoop=1;jettySize=auto;html=1;" parent="1" source="Es5IA8GZJjC9We63MNXz-1" target="Es5IA8GZJjC9We63MNXz-3" edge="1">
                    <mxGeometry relative="1" as="geometry"/>
                </mxCell>
                <mxCell id="Es5IA8GZJjC9We63MNXz-1" value="Redmine" style="rounded=0;whiteSpace=wrap;html=1;" parent="1" vertex="1">
                    <mxGeometry x="-80" y="160" width="120" height="60" as="geometry"/>
                </mxCell>
                <mxCell id="Es5IA8GZJjC9We63MNXz-6" value="" style="edgeStyle=orthogonalEdgeStyle;rounded=0;orthogonalLoop=1;jettySize=auto;html=1;" parent="1" source="Es5IA8GZJjC9We63MNXz-3" target="Es5IA8GZJjC9We63MNXz-5" edge="1">
                    <mxGeometry relative="1" as="geometry"/>
                </mxCell>
                <mxCell id="Es5IA8GZJjC9We63MNXz-3" value="Рассылка уведомлений по e-mail" style="rounded=0;whiteSpace=wrap;html=1;" parent="1" vertex="1">
                    <mxGeometry x="120" y="160" width="120" height="60" as="geometry"/>
                </mxCell>
                <mxCell id="Es5IA8GZJjC9We63MNXz-8" value="" style="edgeStyle=orthogonalEdgeStyle;rounded=0;orthogonalLoop=1;jettySize=auto;html=1;" parent="1" source="Es5IA8GZJjC9We63MNXz-5" target="Es5IA8GZJjC9We63MNXz-7" edge="1">
                    <mxGeometry relative="1" as="geometry"/>
                </mxCell>
                <mxCell id="Es5IA8GZJjC9We63MNXz-5" value="Проверка e-mail с помощью imap клиента" style="whiteSpace=wrap;html=1;rounded=0;" parent="1" vertex="1">
                    <mxGeometry x="370" y="160" width="120" height="60" as="geometry"/>
                </mxCell>
                <mxCell id="Es5IA8GZJjC9We63MNXz-10" value="" style="edgeStyle=orthogonalEdgeStyle;rounded=0;orthogonalLoop=1;jettySize=auto;html=1;" parent="1" source="Es5IA8GZJjC9We63MNXz-7" target="Es5IA8GZJjC9We63MNXz-9" edge="1">
                    <mxGeometry relative="1" as="geometry"/>
                </mxCell>
                <mxCell id="Es5IA8GZJjC9We63MNXz-7" value="Парсинг новых входящих сообщений" style="whiteSpace=wrap;html=1;rounded=0;" parent="1" vertex="1">
                    <mxGeometry x="690" y="160" width="120" height="60" as="geometry"/>
                </mxCell>
                <mxCell id="Es5IA8GZJjC9We63MNXz-16" style="edgeStyle=orthogonalEdgeStyle;rounded=0;orthogonalLoop=1;jettySize=auto;html=1;exitX=0.25;exitY=1;exitDx=0;exitDy=0;entryX=0.75;entryY=0;entryDx=0;entryDy=0;curved=1;dashed=1;" parent="1" source="Es5IA8GZJjC9We63MNXz-9" target="Es5IA8GZJjC9We63MNXz-11" edge="1">
                    <mxGeometry relative="1" as="geometry"/>
                </mxCell>
                <mxCell id="Es5IA8GZJjC9We63MNXz-9" value="Постановка задач на загрузку данных с помощью redmine api" style="whiteSpace=wrap;html=1;rounded=0;" parent="1" vertex="1">
                    <mxGeometry x="970" y="160" width="200" height="60" as="geometry"/>
                </mxCell>
                <mxCell id="Es5IA8GZJjC9We63MNXz-13" value="" style="edgeStyle=orthogonalEdgeStyle;rounded=0;orthogonalLoop=1;jettySize=auto;html=1;" parent="1" source="Es5IA8GZJjC9We63MNXz-11" target="Es5IA8GZJjC9We63MNXz-12" edge="1">
                    <mxGeometry relative="1" as="geometry"/>
                </mxCell>
                <mxCell id="Es5IA8GZJjC9We63MNXz-11" value="Получение небольшими пачками задач из очереди" style="rounded=0;whiteSpace=wrap;html=1;" parent="1" vertex="1">
                    <mxGeometry x="330" y="320" width="200" height="60" as="geometry"/>
                </mxCell>
                <mxCell id="Es5IA8GZJjC9We63MNXz-15" value="" style="edgeStyle=orthogonalEdgeStyle;rounded=0;orthogonalLoop=1;jettySize=auto;html=1;" parent="1" source="Es5IA8GZJjC9We63MNXz-12" target="Es5IA8GZJjC9We63MNXz-14" edge="1">
                    <mxGeometry relative="1" as="geometry"/>
                </mxCell>
                <mxCell id="Es5IA8GZJjC9We63MNXz-12" value="Выполнение запроса &amp;lt;redmine_url&amp;gt;&lt;span style=&quot;background-color: rgb(250 , 250 , 250) ; color: rgb(72 , 72 , 72)&quot;&gt;/issues/&amp;lt;id&amp;gt;.json&lt;/span&gt;" style="whiteSpace=wrap;html=1;rounded=0;" parent="1" vertex="1">
                    <mxGeometry x="640" y="320" width="220" height="60" as="geometry"/>
                </mxCell>
                <mxCell id="Es5IA8GZJjC9We63MNXz-21" value="" style="rounded=0;orthogonalLoop=1;jettySize=auto;html=1;edgeStyle=orthogonalEdgeStyle;entryX=0.4;entryY=0.1;entryDx=0;entryDy=0;entryPerimeter=0;exitX=1;exitY=0.75;exitDx=0;exitDy=0;" parent="1" source="Es5IA8GZJjC9We63MNXz-14" target="Es5IA8GZJjC9We63MNXz-22" edge="1">
                    <mxGeometry relative="1" as="geometry">
                        <mxPoint x="1310" y="350" as="targetPoint"/>
                    </mxGeometry>
                </mxCell>
                <mxCell id="Es5IA8GZJjC9We63MNXz-23" style="edgeStyle=orthogonalEdgeStyle;rounded=0;orthogonalLoop=1;jettySize=auto;html=1;exitX=1;exitY=0.25;exitDx=0;exitDy=0;entryX=0.5;entryY=0.5;entryDx=0;entryDy=0;entryPerimeter=0;" parent="1" source="Es5IA8GZJjC9We63MNXz-14" target="Es5IA8GZJjC9We63MNXz-24" edge="1">
                    <mxGeometry relative="1" as="geometry">
                        <mxPoint x="1430" y="270" as="targetPoint"/>
                        <Array as="points">
                            <mxPoint x="1400" y="335"/>
                            <mxPoint x="1400" y="220"/>
                        </Array>
                    </mxGeometry>
                </mxCell>
                <mxCell id="Es5IA8GZJjC9We63MNXz-14" value="Рассылка данных с помощью websocket и webhook" style="whiteSpace=wrap;html=1;rounded=0;" parent="1" vertex="1">
                    <mxGeometry x="960" y="320" width="220" height="60" as="geometry"/>
                </mxCell>
                <mxCell id="Es5IA8GZJjC9We63MNXz-22" value="Другие сервисы" style="ellipse;shape=cloud;whiteSpace=wrap;html=1;shadow=1;fillColor=none;" parent="1" vertex="1">
                    <mxGeometry x="1310" y="410" width="240" height="140" as="geometry"/>
                </mxCell>
                <mxCell id="Es5IA8GZJjC9We63MNXz-24" value="Клиенты (web browser)" style="shape=umlActor;verticalLabelPosition=bottom;verticalAlign=top;html=1;outlineConnect=0;shadow=1;fillColor=none;" parent="1" vertex="1">
                    <mxGeometry x="1480" y="160" width="70" height="120" as="geometry"/>
                </mxCell>
            </root>
        </mxGraphModel>
    </diagram>
</mxfile>